<svg width="14" height="20" viewBox="0 0 14 20" fill="none" xmlns="http://www.w3.org/2000/svg">
<path d="M0.14 19.992V17.108L6.832 10.22C8.32533 8.652 9.072 7.34533 9.072 6.3C9.072 5.53467 8.82933 4.91867 8.344 4.452C7.87733 3.98533 7.27067 3.752 6.524 3.752C5.04933 3.752 3.95733 4.51733 3.248 6.048L0 4.144C0.616 2.8 1.50267 1.77333 2.66 1.064C3.81733 0.354667 5.08667 0 6.468 0C8.24133 0 9.76267 0.56 11.032 1.68C12.3013 2.78133 12.936 4.27467 12.936 6.16C12.936 8.19467 11.8627 10.2853 9.716 12.432L5.88 16.268H13.244V19.992H0.14Z" fill="white"/>
</svg>
