<svg width="15" height="23" viewBox="0 0 15 23" fill="none" xmlns="http://www.w3.org/2000/svg">
<path d="M4.43457 12.2881L1.06543 11.4824L2.28125 0.671875H14.2637V4.08496H5.75293L5.22559 8.81641C5.50879 8.65039 5.93848 8.47461 6.51465 8.28906C7.09082 8.09375 7.73535 7.99609 8.44824 7.99609C9.4834 7.99609 10.4014 8.15723 11.2021 8.47949C12.0029 8.80176 12.6816 9.27051 13.2383 9.88574C13.8047 10.501 14.2344 11.2529 14.5273 12.1416C14.8203 13.0303 14.9668 14.0361 14.9668 15.1592C14.9668 16.1064 14.8203 17.0098 14.5273 17.8691C14.2344 18.7188 13.79 19.4805 13.1943 20.1543C12.5986 20.8184 11.8516 21.3408 10.9531 21.7217C10.0547 22.1025 8.99023 22.293 7.75977 22.293C6.8418 22.293 5.95312 22.1562 5.09375 21.8828C4.24414 21.6094 3.47754 21.2041 2.79395 20.667C2.12012 20.1299 1.57812 19.4805 1.16797 18.7188C0.767578 17.9473 0.557617 17.0684 0.538086 16.082H4.72754C4.78613 16.6875 4.94238 17.21 5.19629 17.6494C5.45996 18.0791 5.80664 18.4111 6.23633 18.6455C6.66602 18.8799 7.16895 18.9971 7.74512 18.9971C8.28223 18.9971 8.74121 18.8945 9.12207 18.6895C9.50293 18.4844 9.81055 18.2012 10.0449 17.8398C10.2793 17.4688 10.4502 17.0391 10.5576 16.5508C10.6748 16.0527 10.7334 15.5156 10.7334 14.9395C10.7334 14.3633 10.665 13.8408 10.5283 13.3721C10.3916 12.9033 10.1816 12.498 9.89844 12.1562C9.61523 11.8145 9.25391 11.5508 8.81445 11.3652C8.38477 11.1797 7.88184 11.0869 7.30566 11.0869C6.52441 11.0869 5.91895 11.209 5.48926 11.4531C5.06934 11.6973 4.71777 11.9756 4.43457 12.2881Z" fill="white"/>
</svg>
