<svg width="14" height="20" viewBox="0 0 14 20" fill="none" xmlns="http://www.w3.org/2000/svg">
<path d="M9.24 7.952C10.5653 8.344 11.6387 9.03467 12.46 10.024C13.3 10.9947 13.72 12.1707 13.72 13.552C13.72 15.568 13.0387 17.1453 11.676 18.284C10.332 19.4227 8.68 19.992 6.72 19.992C5.18933 19.992 3.81733 19.6467 2.604 18.956C1.40933 18.2467 0.541333 17.2107 0 15.848L3.304 13.944C3.78933 15.456 4.928 16.212 6.72 16.212C7.70933 16.212 8.47467 15.9787 9.016 15.512C9.576 15.0267 9.856 14.3733 9.856 13.552C9.856 12.7493 9.576 12.1053 9.016 11.62C8.47467 11.1347 7.70933 10.892 6.72 10.892H5.88L4.396 8.652L8.26 3.612H0.588V0H12.908V3.192L9.24 7.952Z" fill="white"/>
</svg>
