<svg width="1431" height="85" viewBox="0 0 1431 85" fill="none" xmlns="http://www.w3.org/2000/svg">
<g clip-path="url(#clip0_2_950)">
<rect width="1443" height="2" transform="translate(-12 83)" fill="#EDEFF2"/>
</g>
<g filter="url(#filter0_d_2_950)">
<rect x="1356" y="10" width="50" height="50" rx="25" fill="white"/>
<path fill-rule="evenodd" clip-rule="evenodd" d="M1381 25C1375.47 25 1371 29.47 1371 35C1371 40.53 1375.47 45 1381 45C1386.53 45 1391 40.53 1391 35C1391 29.47 1386.53 25 1381 25ZM1385.3 39.3C1384.91 39.69 1384.28 39.69 1383.89 39.3L1381 36.41L1378.11 39.3C1377.72 39.69 1377.09 39.69 1376.7 39.3C1376.51 39.1132 1376.41 38.8595 1376.41 38.595C1376.41 38.3305 1376.51 38.0768 1376.7 37.89L1379.59 35L1376.7 32.11C1376.51 31.9232 1376.41 31.6695 1376.41 31.405C1376.41 31.1405 1376.51 30.8868 1376.7 30.7C1377.09 30.31 1377.72 30.31 1378.11 30.7L1381 33.59L1383.89 30.7C1384.28 30.31 1384.91 30.31 1385.3 30.7C1385.69 31.09 1385.69 31.72 1385.3 32.11L1382.41 35L1385.3 37.89C1385.68 38.27 1385.68 38.91 1385.3 39.3Z" fill="#C3CAD9"/>
</g>
<g filter="url(#filter1_d_2_950)">
<rect x="1296" y="10" width="50" height="50" rx="25" fill="white"/>
<path fill-rule="evenodd" clip-rule="evenodd" d="M1320.59 44.5C1321.69 44.5 1322.59 43.6 1322.59 42.5H1318.59C1318.59 43.6 1319.48 44.5 1320.59 44.5ZM1326.59 38.5V33.5C1326.59 30.43 1324.95 27.86 1322.09 27.18V26.5C1322.09 25.67 1321.42 25 1320.59 25C1319.76 25 1319.09 25.67 1319.09 26.5V27.18C1316.22 27.86 1314.59 30.42 1314.59 33.5V38.5L1313.3 39.79C1312.67 40.42 1313.11 41.5 1314 41.5H1327.17C1328.06 41.5 1328.51 40.42 1327.88 39.79L1326.59 38.5Z" fill="#C3CAD9"/>
</g>
<rect x="1336" y="10" width="10" height="10" rx="5" fill="#E62E7B"/>
<g filter="url(#filter2_d_2_950)">
<rect x="13" y="10" width="50" height="50" rx="25" fill="white"/>
<path fill-rule="evenodd" clip-rule="evenodd" d="M30 41H46C46.55 41 47 40.55 47 40C47 39.45 46.55 39 46 39H30C29.45 39 29 39.45 29 40C29 40.55 29.45 41 30 41ZM30 36H46C46.55 36 47 35.55 47 35C47 34.45 46.55 34 46 34H30C29.45 34 29 34.45 29 35C29 35.55 29.45 36 30 36ZM29 30C29 30.55 29.45 31 30 31H46C46.55 31 47 30.55 47 30C47 29.45 46.55 29 46 29H30C29.45 29 29 29.45 29 30Z" fill="#C3CAD9"/>
</g>
<path d="M356.583 32.3384L354.069 40H352.044L355.479 30.7578H356.767L356.583 32.3384ZM358.671 40L356.151 32.3384L355.948 30.7578H357.25L360.703 40H358.671ZM358.557 36.5596V38.0513H353.676V36.5596H358.557ZM361.445 30.25H363.273V38.4258L363.089 40H361.445V30.25ZM367.622 36.4961V36.6294C367.622 37.1414 367.567 37.6112 367.457 38.0386C367.351 38.466 367.186 38.8363 366.961 39.1494C366.737 39.4583 366.458 39.6995 366.124 39.873C365.793 40.0423 365.404 40.127 364.956 40.127C364.537 40.127 364.173 40.0423 363.864 39.873C363.559 39.7038 363.303 39.4647 363.096 39.1558C362.888 38.8468 362.721 38.485 362.594 38.0703C362.467 37.6556 362.372 37.2028 362.309 36.7119V36.4199C362.372 35.929 362.467 35.4762 362.594 35.0615C362.721 34.6468 362.888 34.285 363.096 33.9761C363.303 33.6672 363.559 33.4281 363.864 33.2588C364.168 33.0895 364.528 33.0049 364.943 33.0049C365.396 33.0049 365.789 33.0916 366.124 33.2651C366.462 33.4344 366.741 33.6756 366.961 33.9888C367.186 34.2977 367.351 34.6659 367.457 35.0933C367.567 35.5164 367.622 35.984 367.622 36.4961ZM365.793 36.6294V36.4961C365.793 36.2168 365.772 35.9544 365.73 35.709C365.692 35.4593 365.624 35.2414 365.527 35.0552C365.43 34.8647 365.296 34.7145 365.127 34.6045C364.962 34.4945 364.748 34.4395 364.486 34.4395C364.236 34.4395 364.025 34.4818 363.851 34.5664C363.678 34.651 363.534 34.7695 363.419 34.9219C363.309 35.0742 363.227 35.2562 363.172 35.4678C363.117 35.6751 363.083 35.9036 363.07 36.1533V36.9849C363.083 37.3192 363.138 37.6154 363.235 37.8735C363.337 38.1274 363.489 38.3285 363.692 38.4766C363.9 38.6204 364.168 38.6924 364.499 38.6924C364.757 38.6924 364.97 38.6416 365.14 38.54C365.309 38.4385 365.44 38.2946 365.533 38.1084C365.631 37.9222 365.698 37.7043 365.736 37.4546C365.774 37.2007 365.793 36.9256 365.793 36.6294ZM368.466 36.6357V36.5024C368.466 35.9989 368.538 35.5355 368.682 35.1123C368.826 34.6849 369.035 34.3146 369.31 34.0015C369.585 33.6883 369.924 33.445 370.326 33.2715C370.728 33.0938 371.189 33.0049 371.709 33.0049C372.23 33.0049 372.693 33.0938 373.1 33.2715C373.506 33.445 373.847 33.6883 374.122 34.0015C374.401 34.3146 374.612 34.6849 374.756 35.1123C374.9 35.5355 374.972 35.9989 374.972 36.5024V36.6357C374.972 37.1351 374.9 37.5985 374.756 38.0259C374.612 38.4491 374.401 38.8193 374.122 39.1367C373.847 39.4499 373.508 39.6932 373.106 39.8667C372.704 40.0402 372.243 40.127 371.722 40.127C371.202 40.127 370.738 40.0402 370.332 39.8667C369.93 39.6932 369.589 39.4499 369.31 39.1367C369.035 38.8193 368.826 38.4491 368.682 38.0259C368.538 37.5985 368.466 37.1351 368.466 36.6357ZM370.294 36.5024V36.6357C370.294 36.9235 370.319 37.1922 370.37 37.4419C370.421 37.6916 370.501 37.9116 370.611 38.1021C370.726 38.2882 370.874 38.4342 371.056 38.54C371.238 38.6458 371.46 38.6987 371.722 38.6987C371.976 38.6987 372.194 38.6458 372.376 38.54C372.558 38.4342 372.704 38.2882 372.814 38.1021C372.924 37.9116 373.004 37.6916 373.055 37.4419C373.11 37.1922 373.138 36.9235 373.138 36.6357V36.5024C373.138 36.2231 373.11 35.9608 373.055 35.7153C373.004 35.4657 372.922 35.2456 372.808 35.0552C372.698 34.8605 372.552 34.7082 372.37 34.5981C372.188 34.4881 371.968 34.4331 371.709 34.4331C371.451 34.4331 371.231 34.4881 371.049 34.5981C370.872 34.7082 370.726 34.8605 370.611 35.0552C370.501 35.2456 370.421 35.4657 370.37 35.7153C370.319 35.9608 370.294 36.2231 370.294 36.5024ZM380.158 38.356V33.1318H381.986V40H380.266L380.158 38.356ZM380.361 36.9468L380.901 36.9341C380.901 37.3911 380.848 37.8164 380.742 38.21C380.636 38.5993 380.478 38.9378 380.266 39.2256C380.055 39.5091 379.788 39.7313 379.466 39.8921C379.145 40.0487 378.766 40.127 378.33 40.127C377.996 40.127 377.687 40.0804 377.403 39.9873C377.124 39.89 376.883 39.7397 376.68 39.5366C376.481 39.3293 376.324 39.0648 376.21 38.7432C376.1 38.4173 376.045 38.0259 376.045 37.5688V33.1318H377.873V37.5815C377.873 37.7847 377.896 37.9561 377.943 38.0957C377.994 38.2354 378.063 38.3496 378.152 38.4385C378.241 38.5273 378.345 38.5908 378.463 38.6289C378.586 38.667 378.722 38.686 378.87 38.686C379.246 38.686 379.542 38.6099 379.758 38.4575C379.978 38.3052 380.133 38.0978 380.222 37.8354C380.315 37.5688 380.361 37.2726 380.361 36.9468ZM386.747 33.1318V34.4268H382.748V33.1318H386.747ZM383.738 31.437H385.566V37.9307C385.566 38.1296 385.592 38.2819 385.643 38.3877C385.698 38.4935 385.778 38.5675 385.884 38.6099C385.99 38.6479 386.123 38.667 386.284 38.667C386.398 38.667 386.5 38.6628 386.588 38.6543C386.681 38.6416 386.76 38.6289 386.823 38.6162L386.83 39.9619C386.673 40.0127 386.504 40.0529 386.322 40.0825C386.14 40.1121 385.939 40.127 385.719 40.127C385.317 40.127 384.965 40.0614 384.665 39.9302C384.369 39.7948 384.14 39.5789 383.979 39.2827C383.819 38.9865 383.738 38.5972 383.738 38.1147V31.437ZM396.243 30.7578H398.141V36.8643C398.141 37.5752 397.989 38.174 397.684 38.6606C397.384 39.1473 396.967 39.5133 396.434 39.7588C395.905 40.0042 395.295 40.127 394.605 40.127C393.916 40.127 393.302 40.0042 392.765 39.7588C392.231 39.5133 391.812 39.1473 391.508 38.6606C391.207 38.174 391.057 37.5752 391.057 36.8643V30.7578H392.961V36.8643C392.961 37.279 393.027 37.6175 393.158 37.8799C393.289 38.1423 393.478 38.3348 393.723 38.4575C393.973 38.5802 394.267 38.6416 394.605 38.6416C394.952 38.6416 395.247 38.5802 395.488 38.4575C395.733 38.3348 395.919 38.1423 396.046 37.8799C396.178 37.6175 396.243 37.279 396.243 36.8643V30.7578ZM403.308 38.1021C403.308 37.9709 403.27 37.8524 403.194 37.7466C403.118 37.6408 402.976 37.5435 402.769 37.4546C402.565 37.3615 402.271 37.2769 401.886 37.2007C401.539 37.1245 401.215 37.0293 400.915 36.915C400.619 36.7965 400.361 36.6548 400.141 36.4897C399.925 36.3247 399.756 36.13 399.633 35.9058C399.51 35.6772 399.449 35.417 399.449 35.125C399.449 34.8372 399.51 34.5664 399.633 34.3125C399.76 34.0586 399.94 33.8343 400.172 33.6396C400.409 33.4408 400.697 33.2863 401.036 33.1763C401.378 33.062 401.764 33.0049 402.191 33.0049C402.788 33.0049 403.3 33.1001 403.727 33.2905C404.159 33.481 404.489 33.7433 404.717 34.0776C404.95 34.4077 405.066 34.7843 405.066 35.2075H403.238C403.238 35.0298 403.2 34.8711 403.124 34.7314C403.052 34.5876 402.938 34.4754 402.781 34.395C402.629 34.3104 402.43 34.2681 402.185 34.2681C401.981 34.2681 401.806 34.304 401.658 34.376C401.51 34.4437 401.395 34.5368 401.315 34.6553C401.239 34.7695 401.201 34.8965 401.201 35.0361C401.201 35.1419 401.222 35.2371 401.264 35.3218C401.311 35.4022 401.385 35.4762 401.486 35.5439C401.588 35.6117 401.719 35.6751 401.88 35.7344C402.045 35.7894 402.248 35.8402 402.489 35.8867C402.984 35.9883 403.427 36.1216 403.816 36.2866C404.205 36.4474 404.514 36.6675 404.743 36.9468C404.971 37.2218 405.085 37.5837 405.085 38.0322C405.085 38.3369 405.018 38.6162 404.882 38.8701C404.747 39.124 404.552 39.3462 404.298 39.5366C404.044 39.7228 403.74 39.8688 403.384 39.9746C403.033 40.0762 402.637 40.127 402.197 40.127C401.558 40.127 401.017 40.0127 400.572 39.7842C400.132 39.5557 399.798 39.2658 399.569 38.9146C399.345 38.5591 399.233 38.1951 399.233 37.8228H400.966C400.974 38.0724 401.038 38.2734 401.156 38.4258C401.279 38.5781 401.433 38.6882 401.62 38.7559C401.81 38.8236 402.015 38.8574 402.235 38.8574C402.472 38.8574 402.669 38.8257 402.826 38.7622C402.982 38.6945 403.101 38.6056 403.181 38.4956C403.266 38.3813 403.308 38.2502 403.308 38.1021Z" fill="#7D8FB3"/>
<path d="M271.663 40H269.65L269.663 38.5146H271.663C272.162 38.5146 272.583 38.4025 272.926 38.1782C273.269 37.9497 273.527 37.6175 273.7 37.1816C273.878 36.7458 273.967 36.2189 273.967 35.6011V35.1504C273.967 34.6764 273.916 34.2596 273.814 33.8999C273.717 33.5402 273.571 33.2376 273.376 32.9922C273.182 32.7467 272.943 32.5627 272.659 32.4399C272.376 32.313 272.05 32.2495 271.682 32.2495H269.612V30.7578H271.682C272.299 30.7578 272.864 30.8636 273.376 31.0752C273.893 31.2826 274.339 31.5809 274.716 31.9702C275.092 32.3595 275.382 32.825 275.585 33.3667C275.793 33.9041 275.896 34.5029 275.896 35.1631V35.6011C275.896 36.257 275.793 36.8558 275.585 37.3975C275.382 37.9391 275.092 38.4046 274.716 38.7939C274.343 39.179 273.897 39.4774 273.376 39.689C272.86 39.8963 272.289 40 271.663 40ZM270.729 30.7578V40H268.825V30.7578H270.729ZM280.873 38.4512V35.3916C280.873 35.1715 280.837 34.9832 280.765 34.8267C280.693 34.6659 280.581 34.541 280.429 34.4521C280.281 34.3633 280.088 34.3188 279.851 34.3188C279.648 34.3188 279.472 34.3548 279.324 34.4268C279.176 34.4945 279.062 34.5939 278.981 34.7251C278.901 34.8521 278.861 35.0023 278.861 35.1758H277.033C277.033 34.8838 277.1 34.6066 277.236 34.3442C277.371 34.0819 277.568 33.8512 277.826 33.6523C278.084 33.4492 278.391 33.2905 278.747 33.1763C279.106 33.062 279.508 33.0049 279.953 33.0049C280.486 33.0049 280.96 33.0938 281.375 33.2715C281.789 33.4492 282.115 33.7158 282.352 34.0713C282.593 34.4268 282.714 34.8711 282.714 35.4043V38.3433C282.714 38.7199 282.737 39.0288 282.784 39.27C282.83 39.507 282.898 39.7144 282.987 39.8921V40H281.14C281.051 39.8138 280.983 39.5811 280.937 39.3018C280.894 39.0182 280.873 38.7347 280.873 38.4512ZM281.114 35.8169L281.127 36.8516H280.105C279.864 36.8516 279.654 36.8791 279.477 36.9341C279.299 36.9891 279.153 37.0674 279.039 37.1689C278.924 37.2663 278.84 37.3805 278.785 37.5117C278.734 37.6429 278.708 37.7868 278.708 37.9434C278.708 38.0999 278.744 38.2417 278.816 38.3687C278.888 38.4914 278.992 38.5887 279.127 38.6606C279.263 38.7284 279.422 38.7622 279.604 38.7622C279.879 38.7622 280.118 38.7072 280.321 38.5972C280.524 38.4871 280.681 38.3517 280.791 38.1909C280.905 38.0301 280.964 37.8778 280.968 37.7339L281.451 38.5083C281.383 38.6818 281.29 38.8617 281.171 39.0479C281.057 39.234 280.911 39.4097 280.733 39.5747C280.556 39.7355 280.342 39.8688 280.092 39.9746C279.843 40.0762 279.546 40.127 279.204 40.127C278.768 40.127 278.372 40.0402 278.017 39.8667C277.665 39.689 277.386 39.4456 277.179 39.1367C276.976 38.8236 276.874 38.4681 276.874 38.0703C276.874 37.7106 276.942 37.3911 277.077 37.1118C277.213 36.8325 277.411 36.5977 277.674 36.4072C277.94 36.2126 278.273 36.0666 278.67 35.9692C279.068 35.8677 279.529 35.8169 280.054 35.8169H281.114ZM287.836 38.1021C287.836 37.9709 287.798 37.8524 287.722 37.7466C287.646 37.6408 287.504 37.5435 287.297 37.4546C287.094 37.3615 286.8 37.2769 286.415 37.2007C286.068 37.1245 285.744 37.0293 285.443 36.915C285.147 36.7965 284.889 36.6548 284.669 36.4897C284.453 36.3247 284.284 36.13 284.161 35.9058C284.038 35.6772 283.977 35.417 283.977 35.125C283.977 34.8372 284.038 34.5664 284.161 34.3125C284.288 34.0586 284.468 33.8343 284.701 33.6396C284.938 33.4408 285.225 33.2863 285.564 33.1763C285.907 33.062 286.292 33.0049 286.719 33.0049C287.316 33.0049 287.828 33.1001 288.255 33.2905C288.687 33.481 289.017 33.7433 289.246 34.0776C289.478 34.4077 289.595 34.7843 289.595 35.2075H287.767C287.767 35.0298 287.729 34.8711 287.652 34.7314C287.58 34.5876 287.466 34.4754 287.31 34.395C287.157 34.3104 286.958 34.2681 286.713 34.2681C286.51 34.2681 286.334 34.304 286.186 34.376C286.038 34.4437 285.924 34.5368 285.843 34.6553C285.767 34.7695 285.729 34.8965 285.729 35.0361C285.729 35.1419 285.75 35.2371 285.792 35.3218C285.839 35.4022 285.913 35.4762 286.015 35.5439C286.116 35.6117 286.247 35.6751 286.408 35.7344C286.573 35.7894 286.776 35.8402 287.018 35.8867C287.513 35.9883 287.955 36.1216 288.344 36.2866C288.734 36.4474 289.042 36.6675 289.271 36.9468C289.5 37.2218 289.614 37.5837 289.614 38.0322C289.614 38.3369 289.546 38.6162 289.411 38.8701C289.275 39.124 289.081 39.3462 288.827 39.5366C288.573 39.7228 288.268 39.8688 287.913 39.9746C287.561 40.0762 287.166 40.127 286.726 40.127C286.087 40.127 285.545 40.0127 285.101 39.7842C284.66 39.5557 284.326 39.2658 284.098 38.9146C283.873 38.5591 283.761 38.1951 283.761 37.8228H285.494C285.503 38.0724 285.566 38.2734 285.685 38.4258C285.807 38.5781 285.962 38.6882 286.148 38.7559C286.338 38.8236 286.544 38.8574 286.764 38.8574C287.001 38.8574 287.197 38.8257 287.354 38.7622C287.511 38.6945 287.629 38.6056 287.709 38.4956C287.794 38.3813 287.836 38.2502 287.836 38.1021ZM292.584 30.25V40H290.756V30.25H292.584ZM292.324 36.3247H291.823C291.827 35.8465 291.89 35.4064 292.013 35.0044C292.136 34.5981 292.312 34.2469 292.54 33.9507C292.769 33.6502 293.042 33.4175 293.359 33.2524C293.681 33.0874 294.036 33.0049 294.425 33.0049C294.764 33.0049 295.071 33.0535 295.346 33.1509C295.625 33.244 295.864 33.3963 296.063 33.6079C296.266 33.8153 296.423 34.0882 296.533 34.4268C296.643 34.7653 296.698 35.1758 296.698 35.6582V40H294.857V35.6455C294.857 35.3408 294.812 35.1017 294.724 34.9282C294.639 34.7505 294.514 34.6257 294.349 34.5537C294.188 34.4775 293.989 34.4395 293.752 34.4395C293.49 34.4395 293.266 34.4881 293.08 34.5854C292.898 34.6828 292.752 34.8182 292.642 34.9917C292.532 35.161 292.451 35.3599 292.4 35.5884C292.35 35.8169 292.324 36.0623 292.324 36.3247ZM298.088 30.25H299.916V38.4258L299.732 40H298.088V30.25ZM304.264 36.4961V36.6294C304.264 37.1414 304.209 37.6112 304.099 38.0386C303.993 38.466 303.828 38.8363 303.604 39.1494C303.38 39.4583 303.1 39.6995 302.766 39.873C302.436 40.0423 302.047 40.127 301.598 40.127C301.179 40.127 300.815 40.0423 300.506 39.873C300.202 39.7038 299.946 39.4647 299.738 39.1558C299.531 38.8468 299.364 38.485 299.237 38.0703C299.11 37.6556 299.015 37.2028 298.951 36.7119V36.4199C299.015 35.929 299.11 35.4762 299.237 35.0615C299.364 34.6468 299.531 34.285 299.738 33.9761C299.946 33.6672 300.202 33.4281 300.506 33.2588C300.811 33.0895 301.171 33.0049 301.585 33.0049C302.038 33.0049 302.432 33.0916 302.766 33.2651C303.105 33.4344 303.384 33.6756 303.604 33.9888C303.828 34.2977 303.993 34.6659 304.099 35.0933C304.209 35.5164 304.264 35.984 304.264 36.4961ZM302.436 36.6294V36.4961C302.436 36.2168 302.415 35.9544 302.373 35.709C302.334 35.4593 302.267 35.2414 302.169 35.0552C302.072 34.8647 301.939 34.7145 301.77 34.6045C301.604 34.4945 301.391 34.4395 301.128 34.4395C300.879 34.4395 300.667 34.4818 300.494 34.5664C300.32 34.651 300.176 34.7695 300.062 34.9219C299.952 35.0742 299.869 35.2562 299.814 35.4678C299.759 35.6751 299.726 35.9036 299.713 36.1533V36.9849C299.726 37.3192 299.781 37.6154 299.878 37.8735C299.979 38.1274 300.132 38.3285 300.335 38.4766C300.542 38.6204 300.811 38.6924 301.141 38.6924C301.399 38.6924 301.613 38.6416 301.782 38.54C301.951 38.4385 302.083 38.2946 302.176 38.1084C302.273 37.9222 302.341 37.7043 302.379 37.4546C302.417 37.2007 302.436 36.9256 302.436 36.6294ZM305.108 36.6357V36.5024C305.108 35.9989 305.18 35.5355 305.324 35.1123C305.468 34.6849 305.678 34.3146 305.953 34.0015C306.228 33.6883 306.566 33.445 306.968 33.2715C307.37 33.0938 307.832 33.0049 308.352 33.0049C308.873 33.0049 309.336 33.0938 309.742 33.2715C310.148 33.445 310.489 33.6883 310.764 34.0015C311.043 34.3146 311.255 34.6849 311.399 35.1123C311.543 35.5355 311.615 35.9989 311.615 36.5024V36.6357C311.615 37.1351 311.543 37.5985 311.399 38.0259C311.255 38.4491 311.043 38.8193 310.764 39.1367C310.489 39.4499 310.151 39.6932 309.749 39.8667C309.347 40.0402 308.885 40.127 308.365 40.127C307.844 40.127 307.381 40.0402 306.975 39.8667C306.573 39.6932 306.232 39.4499 305.953 39.1367C305.678 38.8193 305.468 38.4491 305.324 38.0259C305.18 37.5985 305.108 37.1351 305.108 36.6357ZM306.937 36.5024V36.6357C306.937 36.9235 306.962 37.1922 307.013 37.4419C307.063 37.6916 307.144 37.9116 307.254 38.1021C307.368 38.2882 307.516 38.4342 307.698 38.54C307.88 38.6458 308.102 38.6987 308.365 38.6987C308.619 38.6987 308.837 38.6458 309.019 38.54C309.201 38.4342 309.347 38.2882 309.457 38.1021C309.567 37.9116 309.647 37.6916 309.698 37.4419C309.753 37.1922 309.78 36.9235 309.78 36.6357V36.5024C309.78 36.2231 309.753 35.9608 309.698 35.7153C309.647 35.4657 309.564 35.2456 309.45 35.0552C309.34 34.8605 309.194 34.7082 309.012 34.5981C308.83 34.4881 308.61 34.4331 308.352 34.4331C308.094 34.4331 307.874 34.4881 307.692 34.5981C307.514 34.7082 307.368 34.8605 307.254 35.0552C307.144 35.2456 307.063 35.4657 307.013 35.7153C306.962 35.9608 306.937 36.2231 306.937 36.5024ZM316.445 38.4512V35.3916C316.445 35.1715 316.409 34.9832 316.337 34.8267C316.265 34.6659 316.153 34.541 316.001 34.4521C315.853 34.3633 315.66 34.3188 315.423 34.3188C315.22 34.3188 315.045 34.3548 314.896 34.4268C314.748 34.4945 314.634 34.5939 314.554 34.7251C314.473 34.8521 314.433 35.0023 314.433 35.1758H312.605C312.605 34.8838 312.673 34.6066 312.808 34.3442C312.944 34.0819 313.14 33.8512 313.398 33.6523C313.657 33.4492 313.963 33.2905 314.319 33.1763C314.679 33.062 315.081 33.0049 315.525 33.0049C316.058 33.0049 316.532 33.0938 316.947 33.2715C317.361 33.4492 317.687 33.7158 317.924 34.0713C318.166 34.4268 318.286 34.8711 318.286 35.4043V38.3433C318.286 38.7199 318.309 39.0288 318.356 39.27C318.403 39.507 318.47 39.7144 318.559 39.8921V40H316.712C316.623 39.8138 316.555 39.5811 316.509 39.3018C316.466 39.0182 316.445 38.7347 316.445 38.4512ZM316.687 35.8169L316.699 36.8516H315.677C315.436 36.8516 315.227 36.8791 315.049 36.9341C314.871 36.9891 314.725 37.0674 314.611 37.1689C314.497 37.2663 314.412 37.3805 314.357 37.5117C314.306 37.6429 314.281 37.7868 314.281 37.9434C314.281 38.0999 314.317 38.2417 314.389 38.3687C314.461 38.4914 314.564 38.5887 314.7 38.6606C314.835 38.7284 314.994 38.7622 315.176 38.7622C315.451 38.7622 315.69 38.7072 315.893 38.5972C316.096 38.4871 316.253 38.3517 316.363 38.1909C316.477 38.0301 316.536 37.8778 316.541 37.7339L317.023 38.5083C316.955 38.6818 316.862 38.8617 316.744 39.0479C316.629 39.234 316.483 39.4097 316.306 39.5747C316.128 39.7355 315.914 39.8688 315.665 39.9746C315.415 40.0762 315.119 40.127 314.776 40.127C314.34 40.127 313.944 40.0402 313.589 39.8667C313.238 39.689 312.958 39.4456 312.751 39.1367C312.548 38.8236 312.446 38.4681 312.446 38.0703C312.446 37.7106 312.514 37.3911 312.649 37.1118C312.785 36.8325 312.984 36.5977 313.246 36.4072C313.513 36.2126 313.845 36.0666 314.243 35.9692C314.64 35.8677 315.102 35.8169 315.626 35.8169H316.687ZM321.523 34.6299V40H319.695V33.1318H321.416L321.523 34.6299ZM323.593 33.0874L323.561 34.7822C323.472 34.7695 323.364 34.759 323.237 34.7505C323.115 34.7378 323.002 34.7314 322.901 34.7314C322.643 34.7314 322.418 34.7653 322.228 34.833C322.042 34.8965 321.885 34.9917 321.758 35.1187C321.636 35.2456 321.542 35.4001 321.479 35.582C321.42 35.764 321.386 35.9714 321.377 36.2041L321.009 36.0898C321.009 35.6455 321.054 35.2371 321.143 34.8647C321.231 34.4881 321.361 34.1602 321.53 33.8809C321.703 33.6016 321.915 33.3857 322.165 33.2334C322.414 33.0811 322.7 33.0049 323.021 33.0049C323.123 33.0049 323.227 33.0133 323.333 33.0303C323.438 33.043 323.525 33.062 323.593 33.0874ZM328.385 38.502V30.25H330.226V40H328.569L328.385 38.502ZM324.043 36.6484V36.5151C324.043 35.9904 324.103 35.5143 324.221 35.0869C324.34 34.6553 324.513 34.285 324.742 33.9761C324.97 33.6672 325.252 33.4281 325.586 33.2588C325.92 33.0895 326.301 33.0049 326.729 33.0049C327.131 33.0049 327.482 33.0895 327.782 33.2588C328.087 33.4281 328.345 33.6693 328.557 33.9824C328.772 34.2913 328.946 34.6574 329.077 35.0806C329.208 35.4995 329.304 35.9587 329.363 36.458V36.75C329.304 37.2282 329.208 37.6725 329.077 38.083C328.946 38.4935 328.772 38.8532 328.557 39.1621C328.345 39.4668 328.087 39.7038 327.782 39.873C327.478 40.0423 327.122 40.127 326.716 40.127C326.288 40.127 325.908 40.0402 325.573 39.8667C325.243 39.6932 324.964 39.4499 324.735 39.1367C324.511 38.8236 324.34 38.4554 324.221 38.0322C324.103 37.609 324.043 37.1478 324.043 36.6484ZM325.872 36.5151V36.6484C325.872 36.932 325.893 37.1965 325.935 37.4419C325.982 37.6873 326.056 37.9053 326.157 38.0957C326.263 38.2819 326.398 38.4279 326.563 38.5337C326.733 38.6353 326.938 38.686 327.179 38.686C327.492 38.686 327.75 38.6162 327.954 38.4766C328.157 38.3327 328.311 38.1359 328.417 37.8862C328.527 37.6366 328.59 37.3488 328.607 37.0229V36.1914C328.595 35.9248 328.557 35.6857 328.493 35.4741C328.434 35.2583 328.345 35.0742 328.227 34.9219C328.112 34.7695 327.968 34.651 327.795 34.5664C327.626 34.4818 327.425 34.4395 327.192 34.4395C326.955 34.4395 326.752 34.4945 326.583 34.6045C326.413 34.7103 326.276 34.8563 326.17 35.0425C326.068 35.2287 325.992 35.4487 325.941 35.7026C325.895 35.9523 325.872 36.2231 325.872 36.5151Z" fill="#7D8FB3"/>
<path d="M444.347 30.7578V40H442.443L438.729 33.8047V40H436.825V30.7578H438.729L442.449 36.9595V30.7578H444.347ZM449.051 40.127C448.518 40.127 448.039 40.0423 447.616 39.873C447.193 39.6995 446.833 39.4604 446.537 39.1558C446.245 38.8511 446.021 38.4977 445.864 38.0957C445.708 37.6895 445.629 37.2578 445.629 36.8008V36.5469C445.629 36.0264 445.703 35.5503 445.852 35.1187C446 34.687 446.211 34.3125 446.486 33.9951C446.766 33.6777 447.104 33.4344 447.502 33.2651C447.9 33.0916 448.348 33.0049 448.848 33.0049C449.334 33.0049 449.766 33.0853 450.143 33.2461C450.519 33.4069 450.834 33.6354 451.088 33.9316C451.347 34.2279 451.541 34.5833 451.672 34.998C451.804 35.4085 451.869 35.8656 451.869 36.3691V37.1309H446.41V35.9121H450.073V35.7725C450.073 35.5186 450.026 35.2922 449.933 35.0933C449.844 34.8901 449.709 34.7293 449.527 34.6108C449.345 34.4924 449.112 34.4331 448.829 34.4331C448.587 34.4331 448.38 34.486 448.207 34.5918C448.033 34.6976 447.891 34.8457 447.781 35.0361C447.675 35.2266 447.595 35.4508 447.54 35.709C447.489 35.9629 447.464 36.2422 447.464 36.5469V36.8008C447.464 37.0758 447.502 37.3298 447.578 37.5625C447.659 37.7952 447.771 37.9963 447.915 38.1655C448.063 38.3348 448.24 38.466 448.448 38.5591C448.659 38.6522 448.898 38.6987 449.165 38.6987C449.495 38.6987 449.802 38.6353 450.085 38.5083C450.373 38.3771 450.621 38.1803 450.828 37.918L451.717 38.8828C451.573 39.0902 451.376 39.2891 451.126 39.4795C450.881 39.6699 450.585 39.8265 450.238 39.9492C449.891 40.0677 449.495 40.127 449.051 40.127ZM454.872 38.2227L456.3 33.1318H457.461L457.087 35.1313L455.659 40H454.688L454.872 38.2227ZM454.148 33.1318L455.17 38.2163L455.265 40H454.123L452.383 33.1318H454.148ZM458.769 38.1338L459.766 33.1318H461.537L459.797 40H458.661L458.769 38.1338ZM457.62 33.1318L459.042 38.1846L459.239 40H458.261L456.833 35.1377L456.471 33.1318H457.62ZM466.17 38.1021C466.17 37.9709 466.132 37.8524 466.056 37.7466C465.98 37.6408 465.838 37.5435 465.631 37.4546C465.428 37.3615 465.134 37.2769 464.749 37.2007C464.402 37.1245 464.078 37.0293 463.777 36.915C463.481 36.7965 463.223 36.6548 463.003 36.4897C462.787 36.3247 462.618 36.13 462.495 35.9058C462.372 35.6772 462.311 35.417 462.311 35.125C462.311 34.8372 462.372 34.5664 462.495 34.3125C462.622 34.0586 462.802 33.8343 463.035 33.6396C463.272 33.4408 463.559 33.2863 463.898 33.1763C464.241 33.062 464.626 33.0049 465.053 33.0049C465.65 33.0049 466.162 33.1001 466.589 33.2905C467.021 33.481 467.351 33.7433 467.58 34.0776C467.812 34.4077 467.929 34.7843 467.929 35.2075H466.101C466.101 35.0298 466.062 34.8711 465.986 34.7314C465.914 34.5876 465.8 34.4754 465.644 34.395C465.491 34.3104 465.292 34.2681 465.047 34.2681C464.844 34.2681 464.668 34.304 464.52 34.376C464.372 34.4437 464.258 34.5368 464.177 34.6553C464.101 34.7695 464.063 34.8965 464.063 35.0361C464.063 35.1419 464.084 35.2371 464.126 35.3218C464.173 35.4022 464.247 35.4762 464.349 35.5439C464.45 35.6117 464.581 35.6751 464.742 35.7344C464.907 35.7894 465.11 35.8402 465.352 35.8867C465.847 35.9883 466.289 36.1216 466.678 36.2866C467.068 36.4474 467.376 36.6675 467.605 36.9468C467.833 37.2218 467.948 37.5837 467.948 38.0322C467.948 38.3369 467.88 38.6162 467.745 38.8701C467.609 39.124 467.415 39.3462 467.161 39.5366C466.907 39.7228 466.602 39.8688 466.247 39.9746C465.895 40.0762 465.5 40.127 465.06 40.127C464.421 40.127 463.879 40.0127 463.435 39.7842C462.994 39.5557 462.66 39.2658 462.432 38.9146C462.207 38.5591 462.095 38.1951 462.095 37.8228H463.828C463.837 38.0724 463.9 38.2734 464.019 38.4258C464.141 38.5781 464.296 38.6882 464.482 38.7559C464.672 38.8236 464.878 38.8574 465.098 38.8574C465.335 38.8574 465.531 38.8257 465.688 38.7622C465.845 38.6945 465.963 38.6056 466.043 38.4956C466.128 38.3813 466.17 38.2502 466.17 38.1021Z" fill="#7D8FB3"/>
<path d="M504.929 30.7578H506.827V36.8643C506.827 37.5752 506.674 38.174 506.37 38.6606C506.069 39.1473 505.652 39.5133 505.119 39.7588C504.59 40.0042 503.981 40.127 503.291 40.127C502.601 40.127 501.988 40.0042 501.45 39.7588C500.917 39.5133 500.498 39.1473 500.193 38.6606C499.893 38.174 499.743 37.5752 499.743 36.8643V30.7578H501.647V36.8643C501.647 37.279 501.713 37.6175 501.844 37.8799C501.975 38.1423 502.163 38.3348 502.409 38.4575C502.658 38.5802 502.952 38.6416 503.291 38.6416C503.638 38.6416 503.932 38.5802 504.173 38.4575C504.419 38.3348 504.605 38.1423 504.732 37.8799C504.863 37.6175 504.929 37.279 504.929 36.8643V30.7578ZM511.994 38.1021C511.994 37.9709 511.956 37.8524 511.879 37.7466C511.803 37.6408 511.661 37.5435 511.454 37.4546C511.251 37.3615 510.957 37.2769 510.572 37.2007C510.225 37.1245 509.901 37.0293 509.601 36.915C509.304 36.7965 509.046 36.6548 508.826 36.4897C508.61 36.3247 508.441 36.13 508.318 35.9058C508.196 35.6772 508.134 35.417 508.134 35.125C508.134 34.8372 508.196 34.5664 508.318 34.3125C508.445 34.0586 508.625 33.8343 508.858 33.6396C509.095 33.4408 509.383 33.2863 509.721 33.1763C510.064 33.062 510.449 33.0049 510.876 33.0049C511.473 33.0049 511.985 33.1001 512.413 33.2905C512.844 33.481 513.174 33.7433 513.403 34.0776C513.636 34.4077 513.752 34.7843 513.752 35.2075H511.924C511.924 35.0298 511.886 34.8711 511.81 34.7314C511.738 34.5876 511.623 34.4754 511.467 34.395C511.314 34.3104 511.116 34.2681 510.87 34.2681C510.667 34.2681 510.491 34.304 510.343 34.376C510.195 34.4437 510.081 34.5368 510 34.6553C509.924 34.7695 509.886 34.8965 509.886 35.0361C509.886 35.1419 509.907 35.2371 509.95 35.3218C509.996 35.4022 510.07 35.4762 510.172 35.5439C510.273 35.6117 510.405 35.6751 510.565 35.7344C510.73 35.7894 510.934 35.8402 511.175 35.8867C511.67 35.9883 512.112 36.1216 512.501 36.2866C512.891 36.4474 513.2 36.6675 513.428 36.9468C513.657 37.2218 513.771 37.5837 513.771 38.0322C513.771 38.3369 513.703 38.6162 513.568 38.8701C513.432 39.124 513.238 39.3462 512.984 39.5366C512.73 39.7228 512.425 39.8688 512.07 39.9746C511.719 40.0762 511.323 40.127 510.883 40.127C510.244 40.127 509.702 40.0127 509.258 39.7842C508.818 39.5557 508.483 39.2658 508.255 38.9146C508.031 38.5591 507.918 38.1951 507.918 37.8228H509.651C509.66 38.0724 509.723 38.2734 509.842 38.4258C509.965 38.5781 510.119 38.6882 510.305 38.7559C510.496 38.8236 510.701 38.8574 510.921 38.8574C511.158 38.8574 511.355 38.8257 511.511 38.7622C511.668 38.6945 511.786 38.6056 511.867 38.4956C511.951 38.3813 511.994 38.2502 511.994 38.1021ZM518.119 40.127C517.586 40.127 517.108 40.0423 516.685 39.873C516.261 39.6995 515.902 39.4604 515.605 39.1558C515.313 38.8511 515.089 38.4977 514.933 38.0957C514.776 37.6895 514.698 37.2578 514.698 36.8008V36.5469C514.698 36.0264 514.772 35.5503 514.92 35.1187C515.068 34.687 515.28 34.3125 515.555 33.9951C515.834 33.6777 516.173 33.4344 516.57 33.2651C516.968 33.0916 517.417 33.0049 517.916 33.0049C518.403 33.0049 518.834 33.0853 519.211 33.2461C519.588 33.4069 519.903 33.6354 520.157 33.9316C520.415 34.2279 520.61 34.5833 520.741 34.998C520.872 35.4085 520.938 35.8656 520.938 36.3691V37.1309H515.479V35.9121H519.141V35.7725C519.141 35.5186 519.095 35.2922 519.001 35.0933C518.913 34.8901 518.777 34.7293 518.595 34.6108C518.413 34.4924 518.181 34.4331 517.897 34.4331C517.656 34.4331 517.448 34.486 517.275 34.5918C517.101 34.6976 516.96 34.8457 516.85 35.0361C516.744 35.2266 516.663 35.4508 516.608 35.709C516.558 35.9629 516.532 36.2422 516.532 36.5469V36.8008C516.532 37.0758 516.57 37.3298 516.646 37.5625C516.727 37.7952 516.839 37.9963 516.983 38.1655C517.131 38.3348 517.309 38.466 517.516 38.5591C517.728 38.6522 517.967 38.6987 518.233 38.6987C518.563 38.6987 518.87 38.6353 519.154 38.5083C519.442 38.3771 519.689 38.1803 519.896 37.918L520.785 38.8828C520.641 39.0902 520.444 39.2891 520.195 39.4795C519.949 39.6699 519.653 39.8265 519.306 39.9492C518.959 40.0677 518.563 40.127 518.119 40.127ZM523.807 34.6299V40H521.979V33.1318H523.699L523.807 34.6299ZM525.876 33.0874L525.844 34.7822C525.755 34.7695 525.647 34.759 525.521 34.7505C525.398 34.7378 525.286 34.7314 525.184 34.7314C524.926 34.7314 524.702 34.7653 524.511 34.833C524.325 34.8965 524.168 34.9917 524.042 35.1187C523.919 35.2456 523.826 35.4001 523.762 35.582C523.703 35.764 523.669 35.9714 523.661 36.2041L523.292 36.0898C523.292 35.6455 523.337 35.2371 523.426 34.8647C523.515 34.4881 523.644 34.1602 523.813 33.8809C523.986 33.6016 524.198 33.3857 524.448 33.2334C524.697 33.0811 524.983 33.0049 525.305 33.0049C525.406 33.0049 525.51 33.0133 525.616 33.0303C525.722 33.043 525.808 33.062 525.876 33.0874ZM533.69 36.7056H531.335V35.2202H533.69C534.054 35.2202 534.35 35.161 534.579 35.0425C534.807 34.9198 534.974 34.7505 535.08 34.5347C535.186 34.3188 535.239 34.0755 535.239 33.8047C535.239 33.5296 535.186 33.2736 535.08 33.0366C534.974 32.7996 534.807 32.6092 534.579 32.4653C534.35 32.3215 534.054 32.2495 533.69 32.2495H531.995V40H530.091V30.7578H533.69C534.414 30.7578 535.034 30.889 535.55 31.1514C536.07 31.4095 536.468 31.7671 536.743 32.2241C537.018 32.6812 537.156 33.2038 537.156 33.792C537.156 34.3887 537.018 34.9049 536.743 35.3408C536.468 35.7767 536.07 36.1131 535.55 36.3501C535.034 36.5871 534.414 36.7056 533.69 36.7056ZM537.975 36.6357V36.5024C537.975 35.9989 538.047 35.5355 538.19 35.1123C538.334 34.6849 538.544 34.3146 538.819 34.0015C539.094 33.6883 539.432 33.445 539.834 33.2715C540.236 33.0938 540.698 33.0049 541.218 33.0049C541.739 33.0049 542.202 33.0938 542.608 33.2715C543.015 33.445 543.355 33.6883 543.63 34.0015C543.91 34.3146 544.121 34.6849 544.265 35.1123C544.409 35.5355 544.481 35.9989 544.481 36.5024V36.6357C544.481 37.1351 544.409 37.5985 544.265 38.0259C544.121 38.4491 543.91 38.8193 543.63 39.1367C543.355 39.4499 543.017 39.6932 542.615 39.8667C542.213 40.0402 541.751 40.127 541.231 40.127C540.71 40.127 540.247 40.0402 539.841 39.8667C539.439 39.6932 539.098 39.4499 538.819 39.1367C538.544 38.8193 538.334 38.4491 538.19 38.0259C538.047 37.5985 537.975 37.1351 537.975 36.6357ZM539.803 36.5024V36.6357C539.803 36.9235 539.828 37.1922 539.879 37.4419C539.93 37.6916 540.01 37.9116 540.12 38.1021C540.234 38.2882 540.382 38.4342 540.564 38.54C540.746 38.6458 540.969 38.6987 541.231 38.6987C541.485 38.6987 541.703 38.6458 541.885 38.54C542.067 38.4342 542.213 38.2882 542.323 38.1021C542.433 37.9116 542.513 37.6916 542.564 37.4419C542.619 37.1922 542.646 36.9235 542.646 36.6357V36.5024C542.646 36.2231 542.619 35.9608 542.564 35.7153C542.513 35.4657 542.431 35.2456 542.316 35.0552C542.206 34.8605 542.06 34.7082 541.878 34.5981C541.696 34.4881 541.476 34.4331 541.218 34.4331C540.96 34.4331 540.74 34.4881 540.558 34.5981C540.38 34.7082 540.234 34.8605 540.12 35.0552C540.01 35.2456 539.93 35.4657 539.879 35.7153C539.828 35.9608 539.803 36.2231 539.803 36.5024ZM547.534 30.25V40H545.7V30.25H547.534ZM550.975 33.1318V40H549.14V33.1318H550.975ZM549.026 31.3418C549.026 31.0752 549.119 30.8551 549.305 30.6816C549.491 30.5081 549.741 30.4214 550.054 30.4214C550.363 30.4214 550.611 30.5081 550.797 30.6816C550.987 30.8551 551.083 31.0752 551.083 31.3418C551.083 31.6084 550.987 31.8285 550.797 32.002C550.611 32.1755 550.363 32.2622 550.054 32.2622C549.741 32.2622 549.491 32.1755 549.305 32.002C549.119 31.8285 549.026 31.6084 549.026 31.3418ZM555.323 38.6987C555.547 38.6987 555.746 38.6564 555.919 38.5718C556.093 38.4829 556.228 38.3602 556.326 38.2036C556.427 38.0428 556.48 37.8545 556.484 37.6387H558.205C558.2 38.1211 558.071 38.5506 557.817 38.9272C557.563 39.2996 557.223 39.5938 556.795 39.8096C556.368 40.0212 555.89 40.127 555.361 40.127C554.828 40.127 554.362 40.0381 553.964 39.8604C553.571 39.6826 553.243 39.4372 552.98 39.124C552.718 38.8066 552.521 38.4385 552.39 38.0195C552.259 37.5964 552.193 37.1436 552.193 36.6611V36.4771C552.193 35.9904 552.259 35.5376 552.39 35.1187C552.521 34.6955 552.718 34.3273 552.98 34.0142C553.243 33.6968 553.571 33.4492 553.964 33.2715C554.358 33.0938 554.819 33.0049 555.348 33.0049C555.911 33.0049 556.404 33.1128 556.827 33.3286C557.255 33.5444 557.589 33.8534 557.83 34.2554C558.076 34.6532 558.2 35.125 558.205 35.6709H556.484C556.48 35.4424 556.431 35.235 556.338 35.0488C556.25 34.8626 556.118 34.7145 555.945 34.6045C555.776 34.4902 555.566 34.4331 555.316 34.4331C555.05 34.4331 554.832 34.4902 554.663 34.6045C554.493 34.7145 554.362 34.8669 554.269 35.0615C554.176 35.252 554.11 35.4699 554.072 35.7153C554.038 35.9565 554.021 36.2104 554.021 36.4771V36.6611C554.021 36.9277 554.038 37.1838 554.072 37.4292C554.106 37.6746 554.17 37.8926 554.263 38.083C554.36 38.2734 554.493 38.4237 554.663 38.5337C554.832 38.6437 555.052 38.6987 555.323 38.6987ZM561.302 39.2256L563.124 33.1318H565.085L562.324 41.0347C562.265 41.2082 562.185 41.3944 562.083 41.5933C561.986 41.7922 561.852 41.9805 561.683 42.1582C561.518 42.3402 561.309 42.4883 561.055 42.6025C560.805 42.7168 560.498 42.7739 560.134 42.7739C559.961 42.7739 559.819 42.7633 559.709 42.7422C559.599 42.721 559.468 42.6914 559.315 42.6533V41.314C559.362 41.314 559.411 41.314 559.461 41.314C559.512 41.3182 559.561 41.3203 559.607 41.3203C559.849 41.3203 560.045 41.2928 560.198 41.2378C560.35 41.1828 560.473 41.0981 560.566 40.9839C560.659 40.8739 560.733 40.73 560.788 40.5522L561.302 39.2256ZM560.541 33.1318L562.032 38.1084L562.292 40.0444L561.048 40.1777L558.579 33.1318H560.541Z" fill="#7D8FB3"/>
<path d="M602.183 36.9341H604.081C604.042 37.5562 603.871 38.1084 603.566 38.5908C603.266 39.0732 602.845 39.4499 602.303 39.7207C601.766 39.9915 601.118 40.127 600.361 40.127C599.768 40.127 599.237 40.0254 598.768 39.8223C598.298 39.6149 597.896 39.3187 597.562 38.9336C597.231 38.5485 596.98 38.083 596.806 37.5371C596.633 36.9912 596.546 36.3797 596.546 35.7026V35.0615C596.546 34.3844 596.635 33.7729 596.812 33.2271C596.994 32.6769 597.253 32.2093 597.587 31.8242C597.925 31.4391 598.33 31.1429 598.799 30.9355C599.269 30.7282 599.794 30.6245 600.374 30.6245C601.144 30.6245 601.793 30.7642 602.322 31.0435C602.855 31.3228 603.268 31.7078 603.56 32.1987C603.856 32.6896 604.034 33.2482 604.093 33.8745H602.189C602.168 33.5021 602.094 33.1868 601.967 32.9287C601.84 32.6663 601.647 32.4696 601.389 32.3384C601.135 32.203 600.797 32.1353 600.374 32.1353C600.056 32.1353 599.779 32.1945 599.542 32.313C599.305 32.4315 599.106 32.6113 598.945 32.8525C598.785 33.0938 598.664 33.3984 598.583 33.7666C598.507 34.1305 598.469 34.5579 598.469 35.0488V35.7026C598.469 36.1808 598.505 36.6019 598.577 36.9658C598.649 37.3255 598.759 37.6302 598.907 37.8799C599.06 38.1253 599.254 38.3115 599.491 38.4385C599.732 38.5612 600.022 38.6226 600.361 38.6226C600.759 38.6226 601.087 38.5591 601.345 38.4321C601.603 38.3052 601.8 38.1169 601.935 37.8672C602.075 37.6175 602.157 37.3065 602.183 36.9341ZM604.925 36.6357V36.5024C604.925 35.9989 604.997 35.5355 605.141 35.1123C605.285 34.6849 605.494 34.3146 605.769 34.0015C606.044 33.6883 606.383 33.445 606.785 33.2715C607.187 33.0938 607.648 33.0049 608.168 33.0049C608.689 33.0049 609.152 33.0938 609.559 33.2715C609.965 33.445 610.306 33.6883 610.581 34.0015C610.86 34.3146 611.071 34.6849 611.215 35.1123C611.359 35.5355 611.431 35.9989 611.431 36.5024V36.6357C611.431 37.1351 611.359 37.5985 611.215 38.0259C611.071 38.4491 610.86 38.8193 610.581 39.1367C610.306 39.4499 609.967 39.6932 609.565 39.8667C609.163 40.0402 608.702 40.127 608.181 40.127C607.661 40.127 607.197 40.0402 606.791 39.8667C606.389 39.6932 606.048 39.4499 605.769 39.1367C605.494 38.8193 605.285 38.4491 605.141 38.0259C604.997 37.5985 604.925 37.1351 604.925 36.6357ZM606.753 36.5024V36.6357C606.753 36.9235 606.778 37.1922 606.829 37.4419C606.88 37.6916 606.96 37.9116 607.07 38.1021C607.185 38.2882 607.333 38.4342 607.515 38.54C607.697 38.6458 607.919 38.6987 608.181 38.6987C608.435 38.6987 608.653 38.6458 608.835 38.54C609.017 38.4342 609.163 38.2882 609.273 38.1021C609.383 37.9116 609.463 37.6916 609.514 37.4419C609.569 37.1922 609.597 36.9235 609.597 36.6357V36.5024C609.597 36.2231 609.569 35.9608 609.514 35.7153C609.463 35.4657 609.381 35.2456 609.267 35.0552C609.157 34.8605 609.011 34.7082 608.829 34.5981C608.647 34.4881 608.427 34.4331 608.168 34.4331C607.91 34.4331 607.69 34.4881 607.508 34.5981C607.331 34.7082 607.185 34.8605 607.07 35.0552C606.96 35.2456 606.88 35.4657 606.829 35.7153C606.778 35.9608 606.753 36.2231 606.753 36.5024ZM614.345 34.5981V40H612.517V33.1318H614.23L614.345 34.5981ZM614.078 36.3247H613.583C613.583 35.8169 613.649 35.3599 613.78 34.9536C613.911 34.5431 614.095 34.194 614.332 33.9062C614.569 33.6143 614.85 33.3921 615.176 33.2397C615.506 33.0832 615.875 33.0049 616.281 33.0049C616.602 33.0049 616.896 33.0514 617.163 33.1445C617.43 33.2376 617.658 33.3857 617.849 33.5889C618.043 33.792 618.191 34.0607 618.293 34.395C618.399 34.7293 618.452 35.1377 618.452 35.6201V40H616.611V35.6138C616.611 35.3091 616.569 35.0721 616.484 34.9028C616.399 34.7336 616.274 34.6151 616.109 34.5474C615.949 34.4754 615.75 34.4395 615.513 34.4395C615.267 34.4395 615.054 34.4881 614.872 34.5854C614.694 34.6828 614.546 34.8182 614.427 34.9917C614.313 35.161 614.226 35.3599 614.167 35.5884C614.108 35.8169 614.078 36.0623 614.078 36.3247ZM623.206 33.1318V34.4268H619.207V33.1318H623.206ZM620.197 31.437H622.025V37.9307C622.025 38.1296 622.051 38.2819 622.102 38.3877C622.157 38.4935 622.237 38.5675 622.343 38.6099C622.449 38.6479 622.582 38.667 622.743 38.667C622.857 38.667 622.958 38.6628 623.047 38.6543C623.14 38.6416 623.219 38.6289 623.282 38.6162L623.289 39.9619C623.132 40.0127 622.963 40.0529 622.781 40.0825C622.599 40.1121 622.398 40.127 622.178 40.127C621.776 40.127 621.424 40.0614 621.124 39.9302C620.828 39.7948 620.599 39.5789 620.438 39.2827C620.278 38.9865 620.197 38.5972 620.197 38.1147V31.437ZM627.954 38.4512V35.3916C627.954 35.1715 627.918 34.9832 627.846 34.8267C627.774 34.6659 627.662 34.541 627.51 34.4521C627.362 34.3633 627.169 34.3188 626.932 34.3188C626.729 34.3188 626.553 34.3548 626.405 34.4268C626.257 34.4945 626.143 34.5939 626.062 34.7251C625.982 34.8521 625.942 35.0023 625.942 35.1758H624.114C624.114 34.8838 624.181 34.6066 624.317 34.3442C624.452 34.0819 624.649 33.8512 624.907 33.6523C625.165 33.4492 625.472 33.2905 625.828 33.1763C626.187 33.062 626.589 33.0049 627.034 33.0049C627.567 33.0049 628.041 33.0938 628.456 33.2715C628.87 33.4492 629.196 33.7158 629.433 34.0713C629.674 34.4268 629.795 34.8711 629.795 35.4043V38.3433C629.795 38.7199 629.818 39.0288 629.865 39.27C629.911 39.507 629.979 39.7144 630.068 39.8921V40H628.221C628.132 39.8138 628.064 39.5811 628.018 39.3018C627.975 39.0182 627.954 38.7347 627.954 38.4512ZM628.195 35.8169L628.208 36.8516H627.186C626.945 36.8516 626.735 36.8791 626.558 36.9341C626.38 36.9891 626.234 37.0674 626.12 37.1689C626.005 37.2663 625.921 37.3805 625.866 37.5117C625.815 37.6429 625.79 37.7868 625.79 37.9434C625.79 38.0999 625.826 38.2417 625.897 38.3687C625.969 38.4914 626.073 38.5887 626.208 38.6606C626.344 38.7284 626.503 38.7622 626.685 38.7622C626.96 38.7622 627.199 38.7072 627.402 38.5972C627.605 38.4871 627.762 38.3517 627.872 38.1909C627.986 38.0301 628.045 37.8778 628.049 37.7339L628.532 38.5083C628.464 38.6818 628.371 38.8617 628.252 39.0479C628.138 39.234 627.992 39.4097 627.814 39.5747C627.637 39.7355 627.423 39.8688 627.173 39.9746C626.924 40.0762 626.627 40.127 626.285 40.127C625.849 40.127 625.453 40.0402 625.098 39.8667C624.746 39.689 624.467 39.4456 624.26 39.1367C624.057 38.8236 623.955 38.4681 623.955 38.0703C623.955 37.7106 624.023 37.3911 624.158 37.1118C624.294 36.8325 624.493 36.5977 624.755 36.4072C625.021 36.2126 625.354 36.0666 625.751 35.9692C626.149 35.8677 626.611 35.8169 627.135 35.8169H628.195ZM634.042 38.6987C634.266 38.6987 634.465 38.6564 634.638 38.5718C634.812 38.4829 634.947 38.3602 635.044 38.2036C635.146 38.0428 635.199 37.8545 635.203 37.6387H636.923C636.919 38.1211 636.79 38.5506 636.536 38.9272C636.282 39.2996 635.942 39.5938 635.514 39.8096C635.087 40.0212 634.609 40.127 634.08 40.127C633.546 40.127 633.081 40.0381 632.683 39.8604C632.29 39.6826 631.962 39.4372 631.699 39.124C631.437 38.8066 631.24 38.4385 631.109 38.0195C630.978 37.5964 630.912 37.1436 630.912 36.6611V36.4771C630.912 35.9904 630.978 35.5376 631.109 35.1187C631.24 34.6955 631.437 34.3273 631.699 34.0142C631.962 33.6968 632.29 33.4492 632.683 33.2715C633.077 33.0938 633.538 33.0049 634.067 33.0049C634.63 33.0049 635.123 33.1128 635.546 33.3286C635.973 33.5444 636.308 33.8534 636.549 34.2554C636.794 34.6532 636.919 35.125 636.923 35.6709H635.203C635.199 35.4424 635.15 35.235 635.057 35.0488C634.968 34.8626 634.837 34.7145 634.664 34.6045C634.494 34.4902 634.285 34.4331 634.035 34.4331C633.769 34.4331 633.551 34.4902 633.381 34.6045C633.212 34.7145 633.081 34.8669 632.988 35.0615C632.895 35.252 632.829 35.4699 632.791 35.7153C632.757 35.9565 632.74 36.2104 632.74 36.4771V36.6611C632.74 36.9277 632.757 37.1838 632.791 37.4292C632.825 37.6746 632.888 37.8926 632.981 38.083C633.079 38.2734 633.212 38.4237 633.381 38.5337C633.551 38.6437 633.771 38.6987 634.042 38.6987ZM641.348 33.1318V34.4268H637.349V33.1318H641.348ZM638.339 31.437H640.167V37.9307C640.167 38.1296 640.192 38.2819 640.243 38.3877C640.298 38.4935 640.379 38.5675 640.484 38.6099C640.59 38.6479 640.723 38.667 640.884 38.667C640.999 38.667 641.1 38.6628 641.189 38.6543C641.282 38.6416 641.36 38.6289 641.424 38.6162L641.43 39.9619C641.274 40.0127 641.104 40.0529 640.922 40.0825C640.74 40.1121 640.539 40.127 640.319 40.127C639.917 40.127 639.566 40.0614 639.266 39.9302C638.969 39.7948 638.741 39.5789 638.58 39.2827C638.419 38.9865 638.339 38.5972 638.339 38.1147V31.437ZM646.102 38.1021C646.102 37.9709 646.064 37.8524 645.988 37.7466C645.912 37.6408 645.77 37.5435 645.562 37.4546C645.359 37.3615 645.065 37.2769 644.68 37.2007C644.333 37.1245 644.009 37.0293 643.709 36.915C643.413 36.7965 643.155 36.6548 642.935 36.4897C642.719 36.3247 642.549 36.13 642.427 35.9058C642.304 35.6772 642.243 35.417 642.243 35.125C642.243 34.8372 642.304 34.5664 642.427 34.3125C642.554 34.0586 642.734 33.8343 642.966 33.6396C643.203 33.4408 643.491 33.2863 643.83 33.1763C644.172 33.062 644.557 33.0049 644.985 33.0049C645.582 33.0049 646.094 33.1001 646.521 33.2905C646.953 33.481 647.283 33.7433 647.511 34.0776C647.744 34.4077 647.86 34.7843 647.86 35.2075H646.032C646.032 35.0298 645.994 34.8711 645.918 34.7314C645.846 34.5876 645.732 34.4754 645.575 34.395C645.423 34.3104 645.224 34.2681 644.979 34.2681C644.775 34.2681 644.6 34.304 644.452 34.376C644.304 34.4437 644.189 34.5368 644.109 34.6553C644.033 34.7695 643.995 34.8965 643.995 35.0361C643.995 35.1419 644.016 35.2371 644.058 35.3218C644.105 35.4022 644.179 35.4762 644.28 35.5439C644.382 35.6117 644.513 35.6751 644.674 35.7344C644.839 35.7894 645.042 35.8402 645.283 35.8867C645.778 35.9883 646.221 36.1216 646.61 36.2866C646.999 36.4474 647.308 36.6675 647.537 36.9468C647.765 37.2218 647.879 37.5837 647.879 38.0322C647.879 38.3369 647.812 38.6162 647.676 38.8701C647.541 39.124 647.346 39.3462 647.092 39.5366C646.838 39.7228 646.534 39.8688 646.178 39.9746C645.827 40.0762 645.431 40.127 644.991 40.127C644.352 40.127 643.811 40.0127 643.366 39.7842C642.926 39.5557 642.592 39.2658 642.363 38.9146C642.139 38.5591 642.027 38.1951 642.027 37.8228H643.76C643.768 38.0724 643.832 38.2734 643.95 38.4258C644.073 38.5781 644.227 38.6882 644.414 38.7559C644.604 38.8236 644.809 38.8574 645.029 38.8574C645.266 38.8574 645.463 38.8257 645.62 38.7622C645.776 38.6945 645.895 38.6056 645.975 38.4956C646.06 38.3813 646.102 38.2502 646.102 38.1021Z" fill="#7D8FB3"/>
<path fill-rule="evenodd" clip-rule="evenodd" d="M688 33C686.9 33 686 33.9 686 35C686 36.1 686.9 37 688 37C689.1 37 690 36.1 690 35C690 33.9 689.1 33 688 33ZM700 33C698.9 33 698 33.9 698 35C698 36.1 698.9 37 700 37C701.1 37 702 36.1 702 35C702 33.9 701.1 33 700 33ZM694 33C692.9 33 692 33.9 692 35C692 36.1 692.9 37 694 37C695.1 37 696 36.1 696 35C696 33.9 695.1 33 694 33Z" fill="#C3CAD9"/>
<path d="M92.8047 38.1514C92.8047 37.9229 92.7695 37.7178 92.6992 37.5361C92.6348 37.3486 92.5117 37.1787 92.3301 37.0264C92.1484 36.8682 91.8936 36.7129 91.5654 36.5605C91.2373 36.4082 90.8125 36.25 90.291 36.0859C89.7109 35.8984 89.1602 35.6875 88.6387 35.4531C88.123 35.2188 87.666 34.9463 87.2676 34.6357C86.875 34.3193 86.5645 33.9531 86.3359 33.5371C86.1133 33.1211 86.002 32.6377 86.002 32.0869C86.002 31.5537 86.1191 31.0703 86.3535 30.6367C86.5879 30.1973 86.916 29.8223 87.3379 29.5117C87.7598 29.1953 88.2578 28.9521 88.832 28.7822C89.4121 28.6123 90.0479 28.5273 90.7393 28.5273C91.6826 28.5273 92.5059 28.6973 93.209 29.0371C93.9121 29.377 94.457 29.8428 94.8438 30.4346C95.2363 31.0264 95.4326 31.7031 95.4326 32.4648H92.8135C92.8135 32.0898 92.7344 31.7617 92.5762 31.4805C92.4238 31.1934 92.1895 30.9678 91.873 30.8037C91.5625 30.6396 91.1699 30.5576 90.6953 30.5576C90.2383 30.5576 89.8574 30.6279 89.5527 30.7686C89.248 30.9033 89.0195 31.0879 88.8672 31.3223C88.7148 31.5508 88.6387 31.8086 88.6387 32.0957C88.6387 32.3125 88.6914 32.5088 88.7969 32.6846C88.9082 32.8604 89.0723 33.0244 89.2891 33.1768C89.5059 33.3291 89.7725 33.4727 90.0889 33.6074C90.4053 33.7422 90.7715 33.874 91.1875 34.0029C91.8848 34.2139 92.4971 34.4512 93.0244 34.7148C93.5576 34.9785 94.0029 35.2744 94.3604 35.6025C94.7178 35.9307 94.9873 36.3027 95.1689 36.7188C95.3506 37.1348 95.4414 37.6064 95.4414 38.1338C95.4414 38.6904 95.333 39.1885 95.1162 39.6279C94.8994 40.0674 94.5859 40.4395 94.1758 40.7441C93.7656 41.0488 93.2764 41.2803 92.708 41.4385C92.1396 41.5967 91.5039 41.6758 90.8008 41.6758C90.168 41.6758 89.5439 41.5938 88.9287 41.4297C88.3135 41.2598 87.7539 41.0049 87.25 40.665C86.752 40.3252 86.3535 39.8916 86.0547 39.3643C85.7559 38.8369 85.6064 38.2129 85.6064 37.4922H88.252C88.252 37.8906 88.3135 38.2275 88.4365 38.5029C88.5596 38.7783 88.7324 39.001 88.9551 39.1709C89.1836 39.3408 89.4531 39.4639 89.7637 39.54C90.0801 39.6162 90.4258 39.6543 90.8008 39.6543C91.2578 39.6543 91.6328 39.5898 91.9258 39.4609C92.2246 39.332 92.4443 39.1533 92.585 38.9248C92.7314 38.6963 92.8047 38.4385 92.8047 38.1514ZM101.734 31.9902V33.7832H96.1973V31.9902H101.734ZM97.5684 29.6436H100.1V38.6348C100.1 38.9102 100.135 39.1211 100.205 39.2676C100.281 39.4141 100.393 39.5166 100.539 39.5752C100.686 39.6279 100.87 39.6543 101.093 39.6543C101.251 39.6543 101.392 39.6484 101.515 39.6367C101.644 39.6191 101.752 39.6016 101.84 39.584L101.849 41.4473C101.632 41.5176 101.397 41.5732 101.146 41.6143C100.894 41.6553 100.615 41.6758 100.311 41.6758C99.7539 41.6758 99.2676 41.585 98.8516 41.4033C98.4414 41.2158 98.125 40.917 97.9023 40.5068C97.6797 40.0967 97.5684 39.5576 97.5684 38.8896V29.6436ZM105.707 34.0645V41.5H103.176V31.9902H105.558L105.707 34.0645ZM108.572 31.9287L108.528 34.2754C108.405 34.2578 108.256 34.2432 108.08 34.2314C107.91 34.2139 107.755 34.2051 107.614 34.2051C107.257 34.2051 106.946 34.252 106.683 34.3457C106.425 34.4336 106.208 34.5654 106.032 34.7412C105.862 34.917 105.733 35.1309 105.646 35.3828C105.563 35.6348 105.517 35.9219 105.505 36.2441L104.995 36.0859C104.995 35.4707 105.057 34.9053 105.18 34.3896C105.303 33.8682 105.481 33.4141 105.716 33.0273C105.956 32.6406 106.249 32.3418 106.595 32.1309C106.94 31.9199 107.336 31.8145 107.781 31.8145C107.922 31.8145 108.065 31.8262 108.212 31.8496C108.358 31.8672 108.479 31.8936 108.572 31.9287ZM109.1 36.8418V36.6572C109.1 35.96 109.199 35.3184 109.398 34.7324C109.598 34.1406 109.888 33.6279 110.269 33.1943C110.649 32.7607 111.118 32.4238 111.675 32.1836C112.231 31.9375 112.87 31.8145 113.591 31.8145C114.312 31.8145 114.953 31.9375 115.516 32.1836C116.078 32.4238 116.55 32.7607 116.931 33.1943C117.317 33.6279 117.61 34.1406 117.81 34.7324C118.009 35.3184 118.108 35.96 118.108 36.6572V36.8418C118.108 37.5332 118.009 38.1748 117.81 38.7666C117.61 39.3525 117.317 39.8652 116.931 40.3047C116.55 40.7383 116.081 41.0752 115.524 41.3154C114.968 41.5557 114.329 41.6758 113.608 41.6758C112.888 41.6758 112.246 41.5557 111.684 41.3154C111.127 41.0752 110.655 40.7383 110.269 40.3047C109.888 39.8652 109.598 39.3525 109.398 38.7666C109.199 38.1748 109.1 37.5332 109.1 36.8418ZM111.631 36.6572V36.8418C111.631 37.2402 111.666 37.6123 111.736 37.958C111.807 38.3037 111.918 38.6084 112.07 38.8721C112.229 39.1299 112.434 39.332 112.686 39.4785C112.938 39.625 113.245 39.6982 113.608 39.6982C113.96 39.6982 114.262 39.625 114.514 39.4785C114.766 39.332 114.968 39.1299 115.12 38.8721C115.272 38.6084 115.384 38.3037 115.454 37.958C115.53 37.6123 115.568 37.2402 115.568 36.8418V36.6572C115.568 36.2705 115.53 35.9072 115.454 35.5674C115.384 35.2217 115.27 34.917 115.111 34.6533C114.959 34.3838 114.757 34.1729 114.505 34.0205C114.253 33.8682 113.948 33.792 113.591 33.792C113.233 33.792 112.929 33.8682 112.677 34.0205C112.431 34.1729 112.229 34.3838 112.07 34.6533C111.918 34.917 111.807 35.2217 111.736 35.5674C111.666 35.9072 111.631 36.2705 111.631 36.6572ZM122.195 27.9912V41.5H119.664V27.9912H122.195ZM128.189 31.9902L124.059 36.7012L121.844 38.9424L120.921 37.1143L122.679 34.8818L125.148 31.9902H128.189ZM125.562 41.5L122.749 37.1055L124.498 35.5762L128.479 41.5H125.562ZM133.48 41.6758C132.742 41.6758 132.08 41.5586 131.494 41.3242C130.908 41.084 130.41 40.7529 130 40.3311C129.596 39.9092 129.285 39.4199 129.068 38.8633C128.852 38.3008 128.743 37.7031 128.743 37.0703V36.7188C128.743 35.998 128.846 35.3389 129.051 34.7412C129.256 34.1436 129.549 33.625 129.93 33.1855C130.316 32.7461 130.785 32.4092 131.336 32.1748C131.887 31.9346 132.508 31.8145 133.199 31.8145C133.873 31.8145 134.471 31.9258 134.992 32.1484C135.514 32.3711 135.95 32.6875 136.302 33.0977C136.659 33.5078 136.929 34 137.11 34.5742C137.292 35.1426 137.383 35.7754 137.383 36.4727V37.5273H129.824V35.8398H134.896V35.6465C134.896 35.2949 134.831 34.9814 134.702 34.7061C134.579 34.4248 134.392 34.2021 134.14 34.0381C133.888 33.874 133.565 33.792 133.173 33.792C132.839 33.792 132.552 33.8652 132.312 34.0117C132.071 34.1582 131.875 34.3633 131.723 34.627C131.576 34.8906 131.465 35.2012 131.389 35.5586C131.318 35.9102 131.283 36.2969 131.283 36.7188V37.0703C131.283 37.4512 131.336 37.8027 131.441 38.125C131.553 38.4473 131.708 38.7256 131.907 38.96C132.112 39.1943 132.358 39.376 132.646 39.5049C132.938 39.6338 133.27 39.6982 133.639 39.6982C134.096 39.6982 134.521 39.6104 134.913 39.4346C135.312 39.2529 135.654 38.9805 135.941 38.6172L137.172 39.9531C136.973 40.2402 136.7 40.5156 136.354 40.7793C136.015 41.043 135.604 41.2598 135.124 41.4297C134.644 41.5938 134.096 41.6758 133.48 41.6758ZM152.052 39.4434V41.5H145.24V39.4434H152.052ZM146.102 28.7031V41.5H143.465V28.7031H146.102ZM151.164 33.915V35.9189H145.24V33.915H151.164ZM152.043 28.7031V30.7686H145.24V28.7031H152.043ZM156.438 39.6543L158.547 31.9902H161.192L157.984 41.5H156.385L156.438 39.6543ZM154.987 31.9902L157.105 39.6631L157.149 41.5H155.541L152.333 31.9902H154.987ZM167.318 39.3555V35.1191C167.318 34.8145 167.269 34.5537 167.169 34.3369C167.069 34.1143 166.914 33.9414 166.703 33.8184C166.498 33.6953 166.231 33.6338 165.903 33.6338C165.622 33.6338 165.379 33.6836 165.174 33.7832C164.969 33.877 164.811 34.0146 164.699 34.1963C164.588 34.3721 164.532 34.5801 164.532 34.8203H162.001C162.001 34.416 162.095 34.0322 162.282 33.6689C162.47 33.3057 162.742 32.9863 163.1 32.7109C163.457 32.4297 163.882 32.21 164.374 32.0518C164.872 31.8936 165.429 31.8145 166.044 31.8145C166.782 31.8145 167.438 31.9375 168.013 32.1836C168.587 32.4297 169.038 32.7988 169.366 33.291C169.7 33.7832 169.867 34.3984 169.867 35.1367V39.2061C169.867 39.7275 169.899 40.1553 169.964 40.4893C170.028 40.8174 170.122 41.1045 170.245 41.3506V41.5H167.688C167.564 41.2422 167.471 40.9199 167.406 40.5332C167.348 40.1406 167.318 39.748 167.318 39.3555ZM167.652 35.708L167.67 37.1406H166.255C165.921 37.1406 165.631 37.1787 165.385 37.2549C165.139 37.3311 164.937 37.4395 164.778 37.5801C164.62 37.7148 164.503 37.873 164.427 38.0547C164.356 38.2363 164.321 38.4355 164.321 38.6523C164.321 38.8691 164.371 39.0654 164.471 39.2412C164.57 39.4111 164.714 39.5459 164.901 39.6455C165.089 39.7393 165.309 39.7861 165.561 39.7861C165.941 39.7861 166.272 39.71 166.554 39.5576C166.835 39.4053 167.052 39.2178 167.204 38.9951C167.362 38.7725 167.444 38.5615 167.45 38.3623L168.118 39.4346C168.024 39.6748 167.896 39.9238 167.731 40.1816C167.573 40.4395 167.371 40.6826 167.125 40.9111C166.879 41.1338 166.583 41.3184 166.237 41.4648C165.892 41.6055 165.481 41.6758 165.007 41.6758C164.403 41.6758 163.855 41.5557 163.363 41.3154C162.877 41.0693 162.49 40.7324 162.203 40.3047C161.922 39.8711 161.781 39.3789 161.781 38.8281C161.781 38.3301 161.875 37.8877 162.062 37.501C162.25 37.1143 162.525 36.7891 162.889 36.5254C163.258 36.2559 163.718 36.0537 164.269 35.9189C164.819 35.7783 165.458 35.708 166.185 35.708H167.652ZM174.49 28V41.5H171.95V28H174.49ZM182.207 39.2236V31.9902H184.738V41.5H182.356L182.207 39.2236ZM182.488 37.2725L183.235 37.2549C183.235 37.8877 183.162 38.4766 183.016 39.0215C182.869 39.5605 182.649 40.0293 182.356 40.4277C182.063 40.8203 181.694 41.1279 181.249 41.3506C180.804 41.5674 180.279 41.6758 179.676 41.6758C179.213 41.6758 178.785 41.6113 178.393 41.4824C178.006 41.3477 177.672 41.1396 177.391 40.8584C177.115 40.5713 176.898 40.2051 176.74 39.7598C176.588 39.3086 176.512 38.7666 176.512 38.1338V31.9902H179.043V38.1514C179.043 38.4326 179.075 38.6699 179.14 38.8633C179.21 39.0566 179.307 39.2148 179.43 39.3379C179.553 39.4609 179.696 39.5488 179.86 39.6016C180.03 39.6543 180.218 39.6807 180.423 39.6807C180.944 39.6807 181.354 39.5752 181.653 39.3643C181.958 39.1533 182.172 38.8662 182.295 38.5029C182.424 38.1338 182.488 37.7236 182.488 37.2725ZM191.805 39.3555V35.1191C191.805 34.8145 191.755 34.5537 191.655 34.3369C191.556 34.1143 191.4 33.9414 191.189 33.8184C190.984 33.6953 190.718 33.6338 190.39 33.6338C190.108 33.6338 189.865 33.6836 189.66 33.7832C189.455 33.877 189.297 34.0146 189.186 34.1963C189.074 34.3721 189.019 34.5801 189.019 34.8203H186.487C186.487 34.416 186.581 34.0322 186.769 33.6689C186.956 33.3057 187.229 32.9863 187.586 32.7109C187.943 32.4297 188.368 32.21 188.86 32.0518C189.358 31.8936 189.915 31.8145 190.53 31.8145C191.269 31.8145 191.925 31.9375 192.499 32.1836C193.073 32.4297 193.524 32.7988 193.853 33.291C194.187 33.7832 194.354 34.3984 194.354 35.1367V39.2061C194.354 39.7275 194.386 40.1553 194.45 40.4893C194.515 40.8174 194.608 41.1045 194.731 41.3506V41.5H192.174C192.051 41.2422 191.957 40.9199 191.893 40.5332C191.834 40.1406 191.805 39.748 191.805 39.3555ZM192.139 35.708L192.156 37.1406H190.741C190.407 37.1406 190.117 37.1787 189.871 37.2549C189.625 37.3311 189.423 37.4395 189.265 37.5801C189.106 37.7148 188.989 37.873 188.913 38.0547C188.843 38.2363 188.808 38.4355 188.808 38.6523C188.808 38.8691 188.857 39.0654 188.957 39.2412C189.057 39.4111 189.2 39.5459 189.388 39.6455C189.575 39.7393 189.795 39.7861 190.047 39.7861C190.428 39.7861 190.759 39.71 191.04 39.5576C191.321 39.4053 191.538 39.2178 191.69 38.9951C191.849 38.7725 191.931 38.5615 191.937 38.3623L192.604 39.4346C192.511 39.6748 192.382 39.9238 192.218 40.1816C192.06 40.4395 191.857 40.6826 191.611 40.9111C191.365 41.1338 191.069 41.3184 190.724 41.4648C190.378 41.6055 189.968 41.6758 189.493 41.6758C188.89 41.6758 188.342 41.5557 187.85 41.3154C187.363 41.0693 186.977 40.7324 186.689 40.3047C186.408 39.8711 186.268 39.3789 186.268 38.8281C186.268 38.3301 186.361 37.8877 186.549 37.501C186.736 37.1143 187.012 36.7891 187.375 36.5254C187.744 36.2559 188.204 36.0537 188.755 35.9189C189.306 35.7783 189.944 35.708 190.671 35.708H192.139ZM200.963 31.9902V33.7832H195.426V31.9902H200.963ZM196.797 29.6436H199.328V38.6348C199.328 38.9102 199.363 39.1211 199.434 39.2676C199.51 39.4141 199.621 39.5166 199.768 39.5752C199.914 39.6279 200.099 39.6543 200.321 39.6543C200.479 39.6543 200.62 39.6484 200.743 39.6367C200.872 39.6191 200.98 39.6016 201.068 39.584L201.077 41.4473C200.86 41.5176 200.626 41.5732 200.374 41.6143C200.122 41.6553 199.844 41.6758 199.539 41.6758C198.982 41.6758 198.496 41.585 198.08 41.4033C197.67 41.2158 197.354 40.917 197.131 40.5068C196.908 40.0967 196.797 39.5576 196.797 38.8896V29.6436ZM205.076 31.9902V41.5H202.536V31.9902H205.076ZM202.378 29.5117C202.378 29.1426 202.507 28.8379 202.765 28.5977C203.022 28.3574 203.368 28.2373 203.802 28.2373C204.229 28.2373 204.572 28.3574 204.83 28.5977C205.094 28.8379 205.226 29.1426 205.226 29.5117C205.226 29.8809 205.094 30.1855 204.83 30.4258C204.572 30.666 204.229 30.7861 203.802 30.7861C203.368 30.7861 203.022 30.666 202.765 30.4258C202.507 30.1855 202.378 29.8809 202.378 29.5117ZM206.764 36.8418V36.6572C206.764 35.96 206.863 35.3184 207.062 34.7324C207.262 34.1406 207.552 33.6279 207.933 33.1943C208.313 32.7607 208.782 32.4238 209.339 32.1836C209.896 31.9375 210.534 31.8145 211.255 31.8145C211.976 31.8145 212.617 31.9375 213.18 32.1836C213.742 32.4238 214.214 32.7607 214.595 33.1943C214.981 33.6279 215.274 34.1406 215.474 34.7324C215.673 35.3184 215.772 35.96 215.772 36.6572V36.8418C215.772 37.5332 215.673 38.1748 215.474 38.7666C215.274 39.3525 214.981 39.8652 214.595 40.3047C214.214 40.7383 213.745 41.0752 213.188 41.3154C212.632 41.5557 211.993 41.6758 211.272 41.6758C210.552 41.6758 209.91 41.5557 209.348 41.3154C208.791 41.0752 208.319 40.7383 207.933 40.3047C207.552 39.8652 207.262 39.3525 207.062 38.7666C206.863 38.1748 206.764 37.5332 206.764 36.8418ZM209.295 36.6572V36.8418C209.295 37.2402 209.33 37.6123 209.4 37.958C209.471 38.3037 209.582 38.6084 209.734 38.8721C209.893 39.1299 210.098 39.332 210.35 39.4785C210.602 39.625 210.909 39.6982 211.272 39.6982C211.624 39.6982 211.926 39.625 212.178 39.4785C212.43 39.332 212.632 39.1299 212.784 38.8721C212.937 38.6084 213.048 38.3037 213.118 37.958C213.194 37.6123 213.232 37.2402 213.232 36.8418V36.6572C213.232 36.2705 213.194 35.9072 213.118 35.5674C213.048 35.2217 212.934 34.917 212.775 34.6533C212.623 34.3838 212.421 34.1729 212.169 34.0205C211.917 33.8682 211.612 33.792 211.255 33.792C210.897 33.792 210.593 33.8682 210.341 34.0205C210.095 34.1729 209.893 34.3838 209.734 34.6533C209.582 34.917 209.471 35.2217 209.4 35.5674C209.33 35.9072 209.295 36.2705 209.295 36.6572ZM219.807 34.0205V41.5H217.275V31.9902H219.648L219.807 34.0205ZM219.438 36.4111H218.752C218.752 35.708 218.843 35.0752 219.024 34.5127C219.206 33.9443 219.461 33.4609 219.789 33.0625C220.117 32.6582 220.507 32.3506 220.958 32.1396C221.415 31.9229 221.925 31.8145 222.487 31.8145C222.933 31.8145 223.34 31.8789 223.709 32.0078C224.078 32.1367 224.395 32.3418 224.658 32.623C224.928 32.9043 225.133 33.2764 225.273 33.7393C225.42 34.2021 225.493 34.7676 225.493 35.4355V41.5H222.944V35.4268C222.944 35.0049 222.886 34.6768 222.769 34.4424C222.651 34.208 222.479 34.0439 222.25 33.9502C222.027 33.8506 221.752 33.8008 221.424 33.8008C221.084 33.8008 220.788 33.8682 220.536 34.0029C220.29 34.1377 220.085 34.3252 219.921 34.5654C219.763 34.7998 219.643 35.0752 219.561 35.3916C219.479 35.708 219.438 36.0479 219.438 36.4111Z" fill="#4D5E80"/>
<path d="M1229.93 30.7578H1231.83V36.8643C1231.83 37.5752 1231.67 38.174 1231.37 38.6606C1231.07 39.1473 1230.65 39.5133 1230.12 39.7588C1229.59 40.0042 1228.98 40.127 1228.29 40.127C1227.6 40.127 1226.99 40.0042 1226.45 39.7588C1225.92 39.5133 1225.5 39.1473 1225.19 38.6606C1224.89 38.174 1224.74 37.5752 1224.74 36.8643V30.7578H1226.65V36.8643C1226.65 37.279 1226.71 37.6175 1226.84 37.8799C1226.97 38.1423 1227.16 38.3348 1227.41 38.4575C1227.66 38.5802 1227.95 38.6416 1228.29 38.6416C1228.64 38.6416 1228.93 38.5802 1229.17 38.4575C1229.42 38.3348 1229.6 38.1423 1229.73 37.8799C1229.86 37.6175 1229.93 37.279 1229.93 36.8643V30.7578ZM1236.99 38.1021C1236.99 37.9709 1236.96 37.8524 1236.88 37.7466C1236.8 37.6408 1236.66 37.5435 1236.45 37.4546C1236.25 37.3615 1235.96 37.2769 1235.57 37.2007C1235.22 37.1245 1234.9 37.0293 1234.6 36.915C1234.3 36.7965 1234.05 36.6548 1233.83 36.4897C1233.61 36.3247 1233.44 36.13 1233.32 35.9058C1233.2 35.6772 1233.13 35.417 1233.13 35.125C1233.13 34.8372 1233.2 34.5664 1233.32 34.3125C1233.45 34.0586 1233.63 33.8343 1233.86 33.6396C1234.09 33.4408 1234.38 33.2863 1234.72 33.1763C1235.06 33.062 1235.45 33.0049 1235.88 33.0049C1236.47 33.0049 1236.99 33.1001 1237.41 33.2905C1237.84 33.481 1238.17 33.7433 1238.4 34.0776C1238.64 34.4077 1238.75 34.7843 1238.75 35.2075H1236.92C1236.92 35.0298 1236.89 34.8711 1236.81 34.7314C1236.74 34.5876 1236.62 34.4754 1236.47 34.395C1236.31 34.3104 1236.12 34.2681 1235.87 34.2681C1235.67 34.2681 1235.49 34.304 1235.34 34.376C1235.2 34.4437 1235.08 34.5368 1235 34.6553C1234.92 34.7695 1234.89 34.8965 1234.89 35.0361C1234.89 35.1419 1234.91 35.2371 1234.95 35.3218C1235 35.4022 1235.07 35.4762 1235.17 35.5439C1235.27 35.6117 1235.4 35.6751 1235.57 35.7344C1235.73 35.7894 1235.93 35.8402 1236.17 35.8867C1236.67 35.9883 1237.11 36.1216 1237.5 36.2866C1237.89 36.4474 1238.2 36.6675 1238.43 36.9468C1238.66 37.2218 1238.77 37.5837 1238.77 38.0322C1238.77 38.3369 1238.7 38.6162 1238.57 38.8701C1238.43 39.124 1238.24 39.3462 1237.98 39.5366C1237.73 39.7228 1237.43 39.8688 1237.07 39.9746C1236.72 40.0762 1236.32 40.127 1235.88 40.127C1235.24 40.127 1234.7 40.0127 1234.26 39.7842C1233.82 39.5557 1233.48 39.2658 1233.25 38.9146C1233.03 38.5591 1232.92 38.1951 1232.92 37.8228H1234.65C1234.66 38.0724 1234.72 38.2734 1234.84 38.4258C1234.96 38.5781 1235.12 38.6882 1235.31 38.7559C1235.5 38.8236 1235.7 38.8574 1235.92 38.8574C1236.16 38.8574 1236.35 38.8257 1236.51 38.7622C1236.67 38.6945 1236.79 38.6056 1236.87 38.4956C1236.95 38.3813 1236.99 38.2502 1236.99 38.1021ZM1243.12 40.127C1242.59 40.127 1242.11 40.0423 1241.68 39.873C1241.26 39.6995 1240.9 39.4604 1240.61 39.1558C1240.31 38.8511 1240.09 38.4977 1239.93 38.0957C1239.78 37.6895 1239.7 37.2578 1239.7 36.8008V36.5469C1239.7 36.0264 1239.77 35.5503 1239.92 35.1187C1240.07 34.687 1240.28 34.3125 1240.55 33.9951C1240.83 33.6777 1241.17 33.4344 1241.57 33.2651C1241.97 33.0916 1242.42 33.0049 1242.92 33.0049C1243.4 33.0049 1243.83 33.0853 1244.21 33.2461C1244.59 33.4069 1244.9 33.6354 1245.16 33.9316C1245.41 34.2279 1245.61 34.5833 1245.74 34.998C1245.87 35.4085 1245.94 35.8656 1245.94 36.3691V37.1309H1240.48V35.9121H1244.14V35.7725C1244.14 35.5186 1244.09 35.2922 1244 35.0933C1243.91 34.8901 1243.78 34.7293 1243.6 34.6108C1243.41 34.4924 1243.18 34.4331 1242.9 34.4331C1242.66 34.4331 1242.45 34.486 1242.27 34.5918C1242.1 34.6976 1241.96 34.8457 1241.85 35.0361C1241.74 35.2266 1241.66 35.4508 1241.61 35.709C1241.56 35.9629 1241.53 36.2422 1241.53 36.5469V36.8008C1241.53 37.0758 1241.57 37.3298 1241.65 37.5625C1241.73 37.7952 1241.84 37.9963 1241.98 38.1655C1242.13 38.3348 1242.31 38.466 1242.52 38.5591C1242.73 38.6522 1242.97 38.6987 1243.23 38.6987C1243.56 38.6987 1243.87 38.6353 1244.15 38.5083C1244.44 38.3771 1244.69 38.1803 1244.9 37.918L1245.79 38.8828C1245.64 39.0902 1245.44 39.2891 1245.19 39.4795C1244.95 39.6699 1244.65 39.8265 1244.31 39.9492C1243.96 40.0677 1243.56 40.127 1243.12 40.127ZM1248.81 34.6299V40H1246.98V33.1318H1248.7L1248.81 34.6299ZM1250.88 33.0874L1250.84 34.7822C1250.76 34.7695 1250.65 34.759 1250.52 34.7505C1250.4 34.7378 1250.29 34.7314 1250.18 34.7314C1249.93 34.7314 1249.7 34.7653 1249.51 34.833C1249.33 34.8965 1249.17 34.9917 1249.04 35.1187C1248.92 35.2456 1248.83 35.4001 1248.76 35.582C1248.7 35.764 1248.67 35.9714 1248.66 36.2041L1248.29 36.0898C1248.29 35.6455 1248.34 35.2371 1248.43 34.8647C1248.51 34.4881 1248.64 34.1602 1248.81 33.8809C1248.99 33.6016 1249.2 33.3857 1249.45 33.2334C1249.7 33.0811 1249.98 33.0049 1250.3 33.0049C1250.41 33.0049 1250.51 33.0133 1250.62 33.0303C1250.72 33.043 1250.81 33.062 1250.88 33.0874Z" fill="#6B7A99"/>
<path fill-rule="evenodd" clip-rule="evenodd" d="M1198 25C1192.48 25 1188 29.48 1188 35C1188 40.52 1192.48 45 1198 45C1203.52 45 1208 40.52 1208 35C1208 29.48 1203.52 25 1198 25ZM1198 28C1199.66 28 1201 29.34 1201 31C1201 32.66 1199.66 34 1198 34C1196.34 34 1195 32.66 1195 31C1195 29.34 1196.34 28 1198 28ZM1198 42.2C1195.5 42.2 1193.29 40.92 1192 38.98C1192.03 36.99 1196 35.9 1198 35.9C1199.99 35.9 1203.97 36.99 1204 38.98C1202.71 40.92 1200.5 42.2 1198 42.2Z" fill="#C3CAD9"/>
<defs>
<filter id="filter0_d_2_950" x="1351" y="7" width="60" height="60" filterUnits="userSpaceOnUse" color-interpolation-filters="sRGB">
<feFlood flood-opacity="0" result="BackgroundImageFix"/>
<feColorMatrix in="SourceAlpha" type="matrix" values="0 0 0 0 0 0 0 0 0 0 0 0 0 0 0 0 0 0 127 0" result="hardAlpha"/>
<feOffset dy="2"/>
<feGaussianBlur stdDeviation="2.5"/>
<feColorMatrix type="matrix" values="0 0 0 0 0.14902 0 0 0 0 0.2 0 0 0 0 0.301961 0 0 0 0.03 0"/>
<feBlend mode="normal" in2="BackgroundImageFix" result="effect1_dropShadow_2_950"/>
<feBlend mode="normal" in="SourceGraphic" in2="effect1_dropShadow_2_950" result="shape"/>
</filter>
<filter id="filter1_d_2_950" x="1291" y="7" width="60" height="60" filterUnits="userSpaceOnUse" color-interpolation-filters="sRGB">
<feFlood flood-opacity="0" result="BackgroundImageFix"/>
<feColorMatrix in="SourceAlpha" type="matrix" values="0 0 0 0 0 0 0 0 0 0 0 0 0 0 0 0 0 0 127 0" result="hardAlpha"/>
<feOffset dy="2"/>
<feGaussianBlur stdDeviation="2.5"/>
<feColorMatrix type="matrix" values="0 0 0 0 0.14902 0 0 0 0 0.2 0 0 0 0 0.301961 0 0 0 0.03 0"/>
<feBlend mode="normal" in2="BackgroundImageFix" result="effect1_dropShadow_2_950"/>
<feBlend mode="normal" in="SourceGraphic" in2="effect1_dropShadow_2_950" result="shape"/>
</filter>
<filter id="filter2_d_2_950" x="8" y="7" width="60" height="60" filterUnits="userSpaceOnUse" color-interpolation-filters="sRGB">
<feFlood flood-opacity="0" result="BackgroundImageFix"/>
<feColorMatrix in="SourceAlpha" type="matrix" values="0 0 0 0 0 0 0 0 0 0 0 0 0 0 0 0 0 0 127 0" result="hardAlpha"/>
<feOffset dy="2"/>
<feGaussianBlur stdDeviation="2.5"/>
<feColorMatrix type="matrix" values="0 0 0 0 0.14902 0 0 0 0 0.2 0 0 0 0 0.301961 0 0 0 0.03 0"/>
<feBlend mode="normal" in2="BackgroundImageFix" result="effect1_dropShadow_2_950"/>
<feBlend mode="normal" in="SourceGraphic" in2="effect1_dropShadow_2_950" result="shape"/>
</filter>
<clipPath id="clip0_2_950">
<rect width="1443" height="2" fill="white" transform="translate(-12 83)"/>
</clipPath>
</defs>
</svg>
